# xmcd
#
# Track frame offsets:
#	150
#	34106
#	56685
#	84756
#	108262
#	147516
#	167499
#	196980
#	216521
#	243644
#
# Disc length: 3509 seconds
#
# Revision: 1
# Processed by: cddbd v1.5.1PL0 Copyright (c) Steve Scherf et al.
# Submitted via: audiograbber 1.83.01
#
DISCID=8a0db30a
DTITLE=Grace Jones - Island Life
DYEAR=1985
DGENRE=Blues
TTITLE0=La Vie En Rose
TTITLE1=I Need A Man
TTITLE2=Do Or Die
TTITLE3=Private Life
TTITLE4=Love Is The Drug
TTITLE5=I've Seen That Face Before (Libertango)
TTITLE6=Pull Up To The Bumper
TTITLE7=Walking In The Rain
TTITLE8=My Jamaican Guy
TTITLE9=Slave To The Rhythm
EXTD=
EXTT0=
EXTT1=
EXTT2=
EXTT3=
EXTT4=
EXTT5=
EXTT6=
EXTT7=
EXTT8=
EXTT9=
PLAYORDER=
